<svg xmlns="http://www.w3.org/2000/svg" viewBox="0 0 256 256" role="img" aria-label="Discord logo">
  <rect width="256" height="256" rx="64" fill="#5865F2"/>
  <path fill="#fff" d="M181.8 79.7c-13.8-6.4-28.7-10.8-44.2-13-2 3.6-4.4 8.4-6 12.2a169 169 0 0 0-51.3 0c-1.7-3.8-4-8.6-6-12.2a176.4 176.4 0 0 0-44.2 13C2.8 121 1.3 161.3 8.8 201a177 177 0 0 0 54.1 27.4c4.4-6 8.3-12.5 11.7-19.3a113 113 0 0 1-18.4-8.9c1.6-1.2 3.2-2.5 4.7-3.8 35.5 16.5 74.1 16.5 109.2 0a96 96 0 0 0 4.7 3.8 112 112 0 0 1-18.5 8.9c3.4 6.8 7.3 13.3 11.7 19.3A176.8 176.8 0 0 0 247.2 201c8.8-45.8-1.5-85.8-65.4-121.3ZM85.8 176.7c-10.7 0-19.5-9.8-19.5-21.8 0-12 8.7-21.8 19.5-21.8 10.8 0 19.6 9.8 19.5 21.8 0 12-8.7 21.8-19.5 21.8Zm84.4 0c-10.8 0-19.5-9.8-19.5-21.8 0-12 8.7-21.8 19.5-21.8 10.8 0 19.5 9.8 19.5 21.8 0 12-8.7 21.8-19.5 21.8Z"/>
</svg>
