<svg xmlns="http://www.w3.org/2000/svg" viewBox="0 0 256 256" role="img" aria-label="Lark logo">
  <rect width="256" height="256" rx="64" fill="#ffffff"/>
  <path d="M62 84.4 152.2 52c8-2.8 16.1 4.8 13.4 12.8L139 145l-77 26.8c-8 2.8-16.1-4.8-13.4-12.8L62 84.4Z" fill="#00C2FF"/>
  <path d="M117 111.4 208.6 79c8-2.8 16.1 4.8 13.4 12.8l-13.6 40.7a18 18 0 0 1-11.3 11.4L105.6 176c-8 2.8-16.1-4.8-13.4-12.8l13.6-40.7a18 18 0 0 1 11.3-11.1Z" fill="#3370FF"/>
  <path d="m91.9 122.8 94-33.3-13 38.7a18 18 0 0 1-11.5 11.4l-94 33.1 13-38.6a18 18 0 0 1 11.5-11.3Z" fill="#00D6B9"/>
</svg>
